<?xml version="1.0" encoding="UTF-8" standalone="no"?><!DOCTYPE svg PUBLIC "-//W3C//DTD SVG 1.1//EN" "http://www.w3.org/Graphics/SVG/1.1/DTD/svg11.dtd"><svg width="100%" height="100%" viewBox="0 0 1436 1521" version="1.1" xmlns="http://www.w3.org/2000/svg" xmlns:xlink="http://www.w3.org/1999/xlink" xml:space="preserve" xmlns:serif="http://www.serif.com/" style="fill-rule:evenodd;clip-rule:evenodd;stroke-linejoin:round;stroke-miterlimit:2;"><g><path d="M283.654,226.365c289.316,0 578.632,0 867.948,0c48.747,0.096 55.747,6.314 56.613,55.393c1.293,73.22 15.444,874.764 -9.082,915.347c-13.433,22.227 -946.362,11.353 -956.706,5.983c-9.402,-4.881 -16.868,-8.578 -15.431,-845.224c0.145,-84.499 -27.265,-115.116 56.658,-131.499Zm532.958,516.886c-209.199,0 -276.134,2.437 -287.49,-7.161c-3.867,-3.268 -46.484,-44.532 43.821,-45.655c445.297,-5.542 461.966,-18.872 472.697,17.415c14.659,49.57 -129.684,35.367 -229.028,35.401Zm15.156,233.922c-384.119,0.121 -463.935,9.433 -436.714,-37.479c9.528,-16.421 31.589,-13.56 406.33,-13.393c6.817,0.003 107.46,0.048 75.257,39.969c-10.605,13.147 -12.411,6.933 -44.873,10.902Zm-350.177,-518.246c81.801,0.021 219,-14.499 200.935,37.616c-3.346,9.651 -5.325,17.558 -246.649,14.618c-64.633,-0.787 -47.83,-48.952 -16.05,-51.175c20.541,-1.437 41.223,0.379 61.764,-1.059Zm426.391,-0c11.226,0.073 135.255,0.878 138.856,20.267c9.248,49.802 -265.362,49.154 -258.189,1.093c2.972,-19.914 109.636,-21.24 119.333,-21.36Zm-487.163,282.781c-62.345,-23.298 -2.083,-64.685 21.503,-38.03c18.827,21.278 0.828,21.212 -21.503,38.03Z" style="fill:#fff;fill-opacity:1;"/><path d="M572.959,1294.924c675.903,0 685.708,-4.124 699.358,22.951c94.686,187.801 48.864,200.499 32.564,201.543c-22.997,1.473 -1159.161,1.627 -1174.504,0.006c-16.243,-1.716 -61.448,-14.222 32.565,-201.551c14.596,-29.084 25.592,-22.949 410.016,-22.949Z" style="fill:#fff;fill-opacity:1;"/><path d="M70.427,0l1294.401,0c8.807,46.015 10.209,59.508 -126.539,168.039c-25.223,20.019 -934.504,9.976 -1015.763,9.079c-23.723,-0.262 -20.752,-7.788 -130.804,-100.215c-33.608,-28.226 -29.644,-33.286 -21.295,-76.903Z" style="fill:#fff;"/><path d="M2.768,176.433c-26.034,-176.31 140.086,13.079 142.568,15.299c45.291,40.511 28.781,140.589 28.761,150.904c-0.918,492.403 5.336,493.33 -0.018,500.114c-31.033,39.327 -47.254,-107.178 -70.701,-211.372c-51.343,-228.154 -50.351,-227.19 -100.61,-454.945Z" style="fill:#fff;fill-opacity:1;"/><path d="M1432.471,176.432c-141.164,646.818 -137.174,709.506 -171.334,666.347c-4.558,-5.759 1.218,-96.67 0.021,-500.143c-0.032,-10.803 -17.059,-109.657 28.894,-150.75c2.974,-2.66 168.069,-191.654 142.418,-15.453Z" style="fill:#fff;fill-opacity:1;"/></g></svg>